# xmcd
#
# Track frame offsets: 
#        150
#        14592
#        32515
#        50682
#        70307
#        89102
#        111245
#        128847
#        144890
#        161057
#        175917
#
# Disc length: 2607 seconds
#
# Revision: 2
# Processed by: cddbd v1.5PL3 Copyright (c) Steve Scherf et al.
# Submitted via: ExactAudioCopy v0.95a3
#
DISCID=9b0a2d0b
DTITLE=Jolie And The Wanted - Jolie And The Wanted
DYEAR=2001
DGENRE=Country
TTITLE0=Boom
TTITLE1=I Would
TTITLE2=Let It Go
TTITLE3=I'm Beautiful
TTITLE4=The Wantin' Not The Gettin'
TTITLE5=Party On The Patio
TTITLE6=Wasted
TTITLE7=It's Only Love
TTITLE8=You Make Me Feel Like A Woman
TTITLE9=You Make Me
TTITLE10=I Go Crazy
EXTD=
EXTT0=
EXTT1=
EXTT2=
EXTT3=
EXTT4=
EXTT5=
EXTT6=
EXTT7=
EXTT8=
EXTT9=
EXTT10=
PLAYORDER=
